<?xml version="1.0" encoding="utf-8"?>
<!-- Generator: Adobe Illustrator 22.1.0, SVG Export Plug-In . SVG Version: 6.00 Build 0)  -->
<svg version="1.1" id="Layer_1" xmlns="http://www.w3.org/2000/svg" xmlns:xlink="http://www.w3.org/1999/xlink" x="0px" y="0px"
	 viewBox="0 0 100 100" style="enable-background:new 0 0 100 100;" xml:space="preserve">
<style type="text/css">
	.st0{fill:#FFED08;stroke:#000000;stroke-miterlimit:10;}
	.st1{fill:#C1C1C1;stroke:#000000;stroke-miterlimit:10;}
	.st2{fill:none;stroke:#000000;stroke-miterlimit:10;}
	.st3{fill:#FFD6A9;stroke:#000000;stroke-miterlimit:10;}
	.st4{fill:none;stroke:#000000;stroke-width:0.5;stroke-miterlimit:10;}
	.st5{stroke:#000000;stroke-width:0.5;stroke-linecap:round;stroke-linejoin:round;stroke-miterlimit:10;}
	.st6{fill:#FFBDBD;stroke:#000000;stroke-width:0.5;stroke-miterlimit:10;}
	.st7{fill:#E8B22D;stroke:#000000;stroke-miterlimit:10;}
	.st8{fill:#C9C9C9;stroke:#000000;stroke-miterlimit:10;}
	.st9{fill:none;stroke:#000000;stroke-width:0.25;stroke-miterlimit:10;}
	.st10{fill:#D8D8D8;stroke:#000000;stroke-width:0.75;stroke-miterlimit:10;}
	.st11{fill:#727272;stroke:#000000;stroke-width:0.75;stroke-miterlimit:10;}
	.st12{fill:#848484;stroke:#000000;stroke-miterlimit:10;}
	.st13{fill:#FFFFFF;}
</style>
<g id="Layer_1_2_">
	<g id="Layer_3">
		<g>
			<path class="st0" d="M62.5,46.8c0.2-0.8,0.6-1.6,1-2.3c4-6.5,10.6-11.4,10.6-19.7C74.1,11.9,63.8,1.5,51,1.5S27.8,11.9,27.8,24.8
				c0,8.3,6.6,13.1,10.7,19.7c0.4,0.7,0.7,1.5,1,2.3"/>
			<path class="st1" d="M62.5,46.4c0,0-5,1-11.5,1s-11.5-1-11.5-1c1.8,6.6-2.3,16.1,11,16.1C63.9,62.5,60.6,53,62.5,46.4"/>
			<path class="st2" d="M62,47c-6.6,4.6-22,2.9-22,2.9"/>
			<path class="st2" d="M40,53.9c0,0,15.4,1.7,21.9-2.9"/>
			<path class="st2" d="M41,57.9c0,0,14,1.6,20.4-2.4"/>
		</g>
	</g>
	<g id="Layer_2_1_">
		<g>
			<path class="st3" d="M23.5,60.5c0,0-2.2-1.2-2.5-1.5C18.7,57,7.4,47.3,8,46.3s15.3,5.3,17.3,6.2c0.2,0.1,3.1,1.9,3.1,1.9"/>
			<path class="st4" d="M7.7,45.9"/>
			<path class="st4" d="M7.7,45.9"/>
			<path class="st5" d="M8.1,46.3l4.9,6c0,0-0.1-1.6,0.2-2c0.1-0.2,1.6-0.9,1.6-0.9l-0.3-1.2L8.1,46.3z"/>
			<path class="st6" d="M85.3,90l3.2,2h-0.1c0.3,0.1,0.3,1.3-1.2,3.9c-1.1,1.9-2.7,3-3,2.8h0.1l-3.2-2"/>
			<path class="st7" d="M70.2,89.8L51,77.8l-7.6-4.7L21,59.1c-0.1-0.1,2.8,1.8,3.5,0.6c0.3-0.6-2.1-3.5-1.7-4.1s4.1,0.2,4.5-0.3
				c0.6-0.8-2.2-2.9-2.1-2.9l0.5,0.3l-0.5-0.3l25.7,16.1l7.6,4.8l15.9,9.9"/>
			<path class="st2" d="M58,73"/>
			<path class="st2" d="M49.8,67.8"/>
			<path class="st8" d="M69.5,89.4c0.4,0.2,1.6-1.1,2.8-2.9c1.2-1.8,1.8-3.5,1.4-3.8l0,0l11.5,7.2c0.4,0.2-0.3,1.9-1.4,3.8
				c-1.2,1.8-2.4,3.2-2.8,2.9L69.5,89.4"/>
			<path class="st9" d="M76,84.2c0.4,0.2-0.3,1.9-1.4,3.8s-2.4,3.2-2.8,2.9"/>
			<path class="st9" d="M77.1,84.9c0.4,0.2-0.3,1.9-1.4,3.8s-2.4,3.2-2.8,2.9"/>
			<path class="st9" d="M81.7,87.8c0.4,0.2-0.3,1.9-1.4,3.8s-2.4,3.2-2.8,2.9"/>
			<path class="st9" d="M82.9,88.5c0.4,0.2-0.3,1.9-1.4,3.8s-2.4,3.2-2.8,2.9"/>
		</g>
	</g>
	<g id="Layer_1_1_">
		<g>
			<polyline class="st10" points="73.4,54.5 73.9,52.9 94,40.3 83.3,57.9 78.8,60.7 77.1,60.4 			"/>
			<line class="st9" x1="89" y1="44.8" x2="82.1" y2="55.9"/>
			<path class="st11" d="M75.6,61.9c0.4-0.2,4-2.5,1.9-5.8s-5.7-1.1-6.1-0.8"/>
			<path class="st12" d="M13.1,91.7c-0.4,0.2,0.3,1.9,1.4,3.8s2.4,3.2,2.7,2.9l32-20l26.4-16.5c0.4-0.2-0.3-1.9-1.4-3.8
				c-1.2-1.8-2.4-3.2-2.7-2.9L45,71.7L13.1,91.7z"/>
			<path class="st2" d="M62.2,70.3c0.4-0.2-0.3-1.9-1.4-3.8c-1.2-1.8-2.4-3.2-2.7-2.9"/>
		</g>
	</g>
</g>
<g id="Layer_2_2_">
	<ellipse transform="matrix(0.3747 -0.9272 0.9272 0.3747 14.8445 45.3691)" class="st13" cx="41.1" cy="11.7" rx="4.1" ry="3.6"/>
	<path class="st13" d="M39.5,23.6c-1.1,3.7-1.8,7.6-1,12.5c-5.3-1.9-7.3-10.6-5.9-14.3c0.8-2.1,2.6-3.5,4.5-3S40.2,21.5,39.5,23.6z"
		/>
</g>
</svg>
